# xmcd
#
# Track frame offsets: 
#        150
#        21047
#        37321
#        53040
#        69629
#        86195
#        104226
#        136845
#        153001
#        175985
#        193834
#        209093
#        224123
#        242352
#        260028
#        279007
#        294156
#
# Disc length: 4356 seconds
#
# Revision: 0
# Processed by: cddbd v1.5.2PL0 Copyright (c) Steve Scherf et al.
# Submitted via: ExactAudioCopy v0.95b3
#
DISCID=09110211
DTITLE=Va  - Capitol Records 50th Anniversary 1942-1992 - Disc 3
DYEAR=1900
DGENRE=
TTITLE0=The Band - The Weight
TTITLE1=Quicksilver Messenger Service - Who Do You Love
TTITLE2=Grand Funk Railroad - We´re An American Band
TTITLE3=Mink Deville - Spanish Stroll
TTITLE4=The Motels - Suddenly Last Summer
TTITLE5=The Tubes - She´s A Beauty
TTITLE6=Klaatu - Calling Occupants
TTITLE7=Bob Welch - Ebony Eyes
TTITLE8=Joe Cocker - Unchain My Heart
TTITLE9=Sly Fox - Let´s Go All The Way
TTITLE10=The Raspberries - Go All The Way
TTITLE11=McGuinn, Clark and Hillman - Don´t You Write Her Off
TTITLE12=Tina Turner - Private Dancer
TTITLE13=Sherriff - When I´m With You
TTITLE14=Billy Squier - Rock Me Tonight
TTITLE15=Bob Seger - Still The Same
TTITLE16=Great White - Rock Me
EXTD=
EXTT0=
EXTT1=
EXTT2=
EXTT3=
EXTT4=
EXTT5=
EXTT6=
EXTT7=
EXTT8=
EXTT9=
EXTT10=
EXTT11=
EXTT12=
EXTT13=
EXTT14=
EXTT15=
EXTT16=
PLAYORDER=
